<svg width="24" height="25" viewBox="0 0 24 25" fill="none" xmlns="http://www.w3.org/2000/svg">
<path d="M18.562 14.8108L14.0003 12.177L18.562 9.54321C18.7916 9.41053 18.9591 9.19211 19.0277 8.93596C19.0963 8.67981 19.0603 8.40691 18.9278 8.17726C18.7952 7.9476 18.5769 7.77999 18.3208 7.71127C18.0647 7.64255 17.7917 7.67835 17.562 7.81079L13 10.4448V5.177C13 4.91179 12.8947 4.65743 12.7071 4.4699C12.5196 4.28236 12.2652 4.177 12 4.177C11.7348 4.177 11.4804 4.28236 11.2929 4.4699C11.1054 4.65743 11 4.91179 11 5.177V10.4448L6.43801 7.81076C6.20829 7.67832 5.93537 7.64252 5.67926 7.71124C5.42315 7.77996 5.20481 7.94757 5.07225 8.17723C4.93968 8.40688 4.90374 8.67978 4.97233 8.93593C5.04092 9.19208 5.20842 9.4105 5.43801 9.54318L9.9997 12.177L5.43801 14.8108C5.20842 14.9435 5.04092 15.1619 4.97233 15.418C4.90374 15.6742 4.93968 15.9471 5.07225 16.1767C5.20481 16.4064 5.42315 16.574 5.67926 16.6427C5.93537 16.7115 6.20829 16.6757 6.43801 16.5432L11 13.9092V19.177C11 19.4422 11.1054 19.6966 11.2929 19.8841C11.4804 20.0716 11.7348 20.177 12 20.177C12.2652 20.177 12.5196 20.0716 12.7071 19.8841C12.8947 19.6966 13 19.4422 13 19.177V13.9092L17.562 16.5432C17.7917 16.6757 18.0647 16.7115 18.3208 16.6428C18.5769 16.574 18.7952 16.4064 18.9278 16.1768C19.0603 15.9471 19.0963 15.6742 19.0277 15.4181C18.9591 15.1619 18.7916 14.9435 18.562 14.8108V14.8108Z" fill="#ae5333"/>
</svg>
