<svg width="32" height="43" viewBox="0 0 32 43" fill="none" xmlns="http://www.w3.org/2000/svg">
<path d="M13.5128 40.4519L16.0867 43L18.9823 40.1333L16.4084 37.5852L13.5128 40.4519Z" fill="#AE5333"/>
<path d="M18.3389 35.9925L20.5911 38.5407L28.6344 30.2592L29.523 29.0863C30.214 28.1742 30.7707 27.1677 31.176 26.0976L31.5301 25.1629L31.5399 25.1241C31.747 24.3038 31.8518 23.4609 31.8518 22.6148V21.699C31.8518 21.0366 31.7965 20.3753 31.6866 19.7221C31.5824 19.1034 31.4295 18.4938 31.2293 17.8992L30.8866 16.8814L30.821 16.6866C30.4379 15.5489 29.8773 14.4633 29.1749 13.4898C28.818 12.9952 28.4195 12.5225 27.9916 12.0879L16.0868 0L3.86081 11.7852L2.57391 13.3777C1.93321 14.2234 1.40731 15.1501 1.00991 16.1338L0.965206 16.2444L0.321707 18.1555L0.252306 18.4993C0.084506 19.3298 5.72205e-06 20.1749 5.72205e-06 21.0222C5.72205e-06 21.8694 0.084506 22.7146 0.252306 23.5451L0.321707 23.8888L0.441006 24.3611C0.789406 25.7408 1.28891 27.0779 1.93041 28.3481L2.89561 29.9407C3.53831 30.789 4.24041 31.5905 4.99671 32.3393L5.46951 32.8073L6.11301 33.4444C6.29201 33.6216 6.57961 33.6238 6.76131 33.4494L17.052 23.5703L17.1678 23.4556C17.3042 23.3206 17.4178 23.1645 17.5043 22.9932L17.5518 22.8991C17.6463 22.7122 17.6954 22.5057 17.6954 22.2963C17.6954 21.8774 17.5971 21.4644 17.4083 21.0906L17.3737 21.0222L17.2561 20.7893C17.1209 20.5216 16.9433 20.2776 16.7302 20.0666L16.4085 19.7481H16.0868L6.43471 29.6222L5.54151 28.4432C4.85311 27.5344 4.28791 26.5385 3.86081 25.4814L3.51401 24.108C3.31701 23.3278 3.21731 22.5183 3.21731 21.7137C3.21731 21.2563 3.25011 20.795 3.31541 20.3423L3.33521 20.2053C3.47021 19.2697 3.75641 18.3623 4.18251 17.5185L4.82601 16.2444L5.46951 15.2889C5.89741 14.6534 6.38721 14.0618 6.93161 13.5228L15.765 4.7778L16.0868 5.0963L24.4519 13.3777L24.9201 13.8413C25.4646 14.3803 25.9544 14.9719 26.3823 15.6074L27.0258 16.5629L27.3475 17.2C27.5617 17.6241 27.7453 18.063 27.897 18.5134L27.991 18.7926L28.0078 18.8425C28.2097 19.4422 28.3127 20.0708 28.3127 20.7037V21.4175C28.3127 22.2137 28.2333 23.0079 28.0756 23.7883L27.991 24.2074L27.5486 25.5214C27.4147 25.9189 27.2526 26.3064 27.0635 26.6809C26.8243 27.1543 26.5429 27.6052 26.2226 28.0281L26.1635 28.106C25.8808 28.4793 25.5718 28.832 25.239 29.1614L18.3389 35.9925Z" fill="#232429"/>
<path d="M22.8429 7.00735L20.1056 4.29734L10.2953 13.6962L8.83925 15.3779C8.52354 15.7426 8.23634 16.1379 7.98635 16.5504C7.59983 17.1881 7.29489 17.8814 7.0881 18.5979C6.86791 19.3609 6.75616 20.1511 6.75616 20.9452V21.3407V21.6065C6.75616 22.2742 6.86483 22.9375 7.0779 23.5703L7.42881 24.4388C7.62353 24.9207 7.85673 25.3862 8.12615 25.8308C8.49861 26.4453 8.9383 27.0165 9.43709 27.5339L15.443 33.7629L24.4147 25.4731C24.8587 25.0628 25.1739 24.5323 25.3219 23.9462C25.3849 23.6965 25.4168 23.4401 25.4168 23.1826V23.1334C25.4168 22.583 25.2847 22.0346 25.0366 21.5433C24.8635 21.2007 24.6343 20.8845 24.3616 20.6145L24.1299 20.3851L15.443 28.6666L12.7357 25.9864C12.1848 25.441 11.7257 24.8101 11.3763 24.1181L11.3595 24.0849C11.0802 23.532 10.8766 22.9441 10.7539 22.3369C10.6629 21.8862 10.617 21.4276 10.617 20.9677V20.295C10.617 19.9318 10.662 19.57 10.7509 19.2178L10.7682 19.1492C10.881 18.7025 11.0703 18.2786 11.3277 17.8963C11.4968 17.6452 11.6939 17.4142 11.9152 17.2076L22.8429 7.00735Z" fill="#AE5333"/>
</svg>
